# xmcd
#
# Track frame offsets: 
#        150
#        14462
#        27517
#        41460
#        53430
#        67447
#        81707
#        93040
#        104007
#        116062
#        129322
#        141962
#        154650
#        168445
#        182545
#        194360
#        207917
#        221020
#        233592
#        246412
#        259747
#        274402
#        287945
#        301607
#
# Disc length: 4200 seconds
#
# Revision: 2
# Processed by: cddbd v1.5.2PL0 Copyright (c) Steve Scherf et al.
# Submitted via: ExactAudioCopyFreeDBPlugin 1.0
#
DISCID=66106618
DTITLE=T-Bone Walker - The Complete Recordings of T-Bone Walker, 1940-
DTITLE=1954 (Mosaic box set]
DYEAR=1990
DGENRE=Blues
TTITLE0=So Blue Blues
TTITLE1=On Your Way Blues
TTITLE2=The Natural Blues
TTITLE3=That's Better for Me
TTITLE4=First Love Blues (alternate take)
TTITLE5=First Love Blues
TTITLE6=Lonesome Woman Blues (alternate take 1)
TTITLE7=Lonesome Woman Blues (alternate take 2)
TTITLE8=Lonesome Woman Blues
TTITLE9=Vacation Blues
TTITLE10=Inspiration Blues (alternate take)
TTITLE11=Inspiration Blues
TTITLE12=Description Blues (alternate take)
TTITLE13=Description Blues
TTITLE14=T-Bone Shuffle (alternate take)
TTITLE15=T-Bone Shuffle
TTITLE16=That Old Feeling is Gone
TTITLE17=The Time Seems So Long
TTITLE18=Prison Blues
TTITLE19=Home Town Blues
TTITLE20=Wise Man Blues (alternate take)
TTITLE21=Wise Man Blues
TTITLE22=Misfortune Blues (alternate take)
TTITLE23=Misfortune Blues
EXTD=#2319 of 7500 8-D
EXTT0=
EXTT1=
EXTT2=
EXTT3=
EXTT4=
EXTT5=
EXTT6=
EXTT7=
EXTT8=
EXTT9=
EXTT10=
EXTT11=
EXTT12=
EXTT13=
EXTT14=
EXTT15=
EXTT16=
EXTT17=
EXTT18=
EXTT19=
EXTT20=
EXTT21=
EXTT22=
EXTT23=
PLAYORDER=
